<svg xmlns="http://www.w3.org/2000/svg" width="109.441" height="109.438" viewBox="0 0 109.441 109.438">
  <g id="_069-charity" data-name="069-charity" transform="translate(0 -0.007)">
    <g id="Group_42" data-name="Group 42" transform="translate(0 54.726)">
      <g id="Group_41" data-name="Group 41">
        <path id="Path_19" data-name="Path 19" d="M107.283,263.421a10.222,10.222,0,0,0-6.895-3.919,10.03,10.03,0,0,0-7.49,2.079l-24.37,18.9a13.494,13.494,0,0,1-8.338,2.886H54.322a23.838,23.838,0,0,0,7.237-17.1,3.421,3.421,0,0,0-3.42-3.42H20.52v-3.42a3.421,3.421,0,0,0-3.42-3.42H3.42A3.421,3.421,0,0,0,0,259.427v47.879a3.421,3.421,0,0,0,3.42,3.42H17.1a3.421,3.421,0,0,0,3.42-3.42v-3.42H66.073A17.194,17.194,0,0,0,76.511,300.3l28.926-22.5a10.2,10.2,0,0,0,3.926-6.888A10.04,10.04,0,0,0,107.283,263.421Zm-93.6,40.465H6.84V262.847h6.84Zm88.9-33.809a3.442,3.442,0,0,1-1.327,2.312l-28.919,22.5a10.315,10.315,0,0,1-6.258,2.161H20.52V269.687H54.377a17.129,17.129,0,0,1-16.758,13.68,3.42,3.42,0,1,0,0,6.84H60.191a20.4,20.4,0,0,0,12.565-4.343l24.37-18.9a3.19,3.19,0,0,1,2.435-.677,3.463,3.463,0,0,1,2.332,1.347A3.291,3.291,0,0,1,102.577,270.077Z" transform="translate(0 -256.007)" fill="#d9be67"/>
      </g>
    </g>
    <g id="Group_44" data-name="Group 44" transform="translate(30.843 0.007)">
      <g id="Group_43" data-name="Group 43" transform="translate(0 0)">
        <path id="Path_20" data-name="Path 20" d="M198.454,49.644l-14.22-25.7h1.04a3.42,3.42,0,0,0,0-6.84h-.8l7.148-11.922A3.413,3.413,0,0,0,188.694.007h-34.2a3.413,3.413,0,0,0-2.934,5.178l7.154,11.922h-.8a3.42,3.42,0,0,0,0,6.84h1.04l-14.227,25.7a3.424,3.424,0,0,0,5.992,3.317l16.053-29.021h9.644l16.06,29.015a3.418,3.418,0,1,0,5.978-3.317ZM176.5,17.107H166.69l-6.156-10.26h22.12Z" transform="translate(-144.298 -0.007)" fill="#d9be67"/>
      </g>
    </g>
  </g>
</svg>
