<svg id="_034-instagram" data-name="034-instagram" xmlns="http://www.w3.org/2000/svg" width="40" height="40" viewBox="0 0 40 40">
  <g id="Group_18" data-name="Group 18">
    <g id="Group_17" data-name="Group 17">
      <path id="Path_8" data-name="Path 8" d="M27.5,0h-15A12.5,12.5,0,0,0,0,12.5v15A12.5,12.5,0,0,0,12.5,40h15A12.5,12.5,0,0,0,40,27.5v-15A12.5,12.5,0,0,0,27.5,0Zm8.75,27.5a8.76,8.76,0,0,1-8.75,8.75h-15A8.76,8.76,0,0,1,3.75,27.5v-15A8.76,8.76,0,0,1,12.5,3.75h15a8.76,8.76,0,0,1,8.75,8.75Z" fill="#fff"/>
    </g>
  </g>
  <g id="Group_20" data-name="Group 20" transform="translate(11.692 11.692)">
    <g id="Group_19" data-name="Group 19">
      <path id="Path_9" data-name="Path 9" d="M136.308,128a8.308,8.308,0,1,0,8.308,8.308A8.309,8.309,0,0,0,136.308,128Zm0,13.5a5.193,5.193,0,1,1,5.193-5.193A5.2,5.2,0,0,1,136.308,141.5Z" transform="translate(-128 -128)" fill="#fff"/>
    </g>
  </g>
  <g id="Group_22" data-name="Group 22" transform="translate(29.773 8.013)">
    <g id="Group_21" data-name="Group 21">
      <ellipse id="Ellipse_8" data-name="Ellipse 8" cx="1.107" cy="1.107" rx="1.107" ry="1.107" fill="#fff"/>
    </g>
  </g>
</svg>
