<svg xmlns="http://www.w3.org/2000/svg" width="102.598" height="109.438" viewBox="0 0 102.598 109.438">
  <g id="_044-payment-method" data-name="044-payment-method" transform="translate(-16)">
    <g id="Group_35" data-name="Group 35" transform="translate(16)">
      <g id="Group_34" data-name="Group 34" transform="translate(0)">
        <path id="Path_16" data-name="Path 16" d="M80.979,20.52A3.421,3.421,0,0,0,84.4,17.1V6.84A6.842,6.842,0,0,0,77.559,0H22.84A6.842,6.842,0,0,0,16,6.84V102.6a6.842,6.842,0,0,0,6.84,6.84H77.559a6.842,6.842,0,0,0,6.84-6.84V92.338a3.421,3.421,0,0,0-3.42-3.42H22.84V20.52ZM22.84,6.84H77.559v6.84H22.84ZM77.559,95.758v6.84H22.84v-6.84Z" transform="translate(-16)" fill="#d9be67"/>
      </g>
    </g>
    <g id="Group_37" data-name="Group 37" transform="translate(77.559 34.199)">
      <g id="Group_36" data-name="Group 36">
        <path id="Path_17" data-name="Path 17" d="M314.26,177.1c-2.093,0-3.42-1.122-3.42-1.71s1.327-1.71,3.42-1.71a4.84,4.84,0,0,1,2.681.725,3.422,3.422,0,0,0,3.8-5.691,11.042,11.042,0,0,0-3.064-1.4V163.42a3.42,3.42,0,1,0-6.84,0v3.947c-3.974,1.176-6.84,4.309-6.84,8.023,0,4.713,4.6,8.55,10.26,8.55,2.093,0,3.42,1.122,3.42,1.71s-1.327,1.71-3.42,1.71a4.84,4.84,0,0,1-2.681-.725,3.422,3.422,0,1,0-3.8,5.691,11.042,11.042,0,0,0,3.064,1.4v3.892a3.42,3.42,0,0,0,6.84,0v-3.947c3.974-1.176,6.84-4.316,6.84-8.023C324.52,180.937,319.916,177.1,314.26,177.1Z" transform="translate(-304 -160)" fill="#d9be67"/>
      </g>
    </g>
    <g id="Group_39" data-name="Group 39" transform="translate(57.039 23.939)">
      <g id="Group_38" data-name="Group 38">
        <path id="Path_18" data-name="Path 18" d="M238.779,112a30.779,30.779,0,1,0,30.779,30.779A30.817,30.817,0,0,0,238.779,112Zm0,54.719a23.939,23.939,0,1,1,23.939-23.939A23.966,23.966,0,0,1,238.779,166.719Z" transform="translate(-208 -112)" fill="#d9be67"/>
      </g>
    </g>
  </g>
</svg>
