<svg xmlns="http://www.w3.org/2000/svg" width="24.41" height="23" viewBox="0 0 24.41 23">
  <path id="wallet_2_" data-name="wallet (2)" d="M7.96,11.224c.239-1.7,1.019-2.347,2.647-2.347H25.285a.939.939,0,0,1,.9.939v1.408Zm20.1.042V9.816A2.816,2.816,0,0,0,25.285,7H10.608C6.524,7,6.059,10.328,6,12.055a.211.211,0,0,0,0,.052V27.184A2.816,2.816,0,0,0,8.815,30H27.59a2.816,2.816,0,0,0,2.816-2.816V14.041a2.816,2.816,0,0,0-2.347-2.774ZM25.008,22.959a2.108,2.108,0,1,1,1.495-.617A2.112,2.112,0,0,1,25.008,22.959Z" transform="translate(-5.997 -7)" fill="#242424"/>
</svg>
